<svg width="294" height="334" viewBox="0 0 294 334" fill="none" xmlns="http://www.w3.org/2000/svg">
<path d="M250.273 196.801L262.921 122.085C262.939 108.099 259.919 94.247 254.035 81.3264C248.149 68.4049 239.517 56.6692 228.633 46.7928C227.313 45.5929 226.113 44.5489 224.795 43.4691C204.275 54.7599 176.58 61.6592 145.892 61.6592C115.204 61.6592 87.4441 54.7239 66.9899 43.4211C54.9603 53.3908 45.3555 65.5394 38.7917 79.0865C32.2281 92.6334 28.8509 107.28 28.8771 122.085V162.052C20.2127 150.87 11.8063 127.106 25.6667 69.5474C45.9339 -7.97244 186.531 -18.6947 239.667 30.6299C281.049 69.026 267.049 162.965 250.273 196.801Z" fill="#BA8063"/>
<path d="M33.8667 166.989L47.3467 167.236C55.7896 167.422 63.8113 170.691 69.6633 176.333C75.5152 181.976 78.7228 189.533 78.5867 197.357C78.5191 201.228 77.6271 205.049 75.962 208.6C74.2968 212.151 71.8912 215.362 68.8833 218.049C65.8755 220.736 62.3244 222.847 58.4341 224.26C54.5439 225.672 50.3908 226.359 46.2133 226.28L32.7467 226.033C24.3013 225.851 16.2763 222.582 10.4215 216.939C4.56668 211.297 1.35735 203.738 1.49335 195.912C1.56095 192.041 2.45295 188.22 4.11815 184.669C5.78321 181.118 8.18881 177.907 11.1967 175.22C14.2045 172.533 17.7556 170.423 21.6459 169.009C25.5361 167.597 29.6892 166.91 33.8667 166.989Z" fill="#FDC6A2"/>
<path d="M33.8667 166.989L47.3467 167.236C55.7896 167.422 63.8113 170.691 69.6633 176.333C75.5152 181.976 78.7228 189.533 78.5867 197.357C78.5191 201.228 77.6271 205.049 75.962 208.6C74.2968 212.151 71.8912 215.362 68.8833 218.049C65.8755 220.736 62.3244 222.847 58.4341 224.26C54.5439 225.672 50.3908 226.359 46.2133 226.28L32.7467 226.033C24.3013 225.851 16.2763 222.582 10.4215 216.939C4.56668 211.297 1.35735 203.738 1.49335 195.912C1.56095 192.041 2.45295 188.22 4.11815 184.669C5.78321 181.118 8.18881 177.907 11.1967 175.22C14.2045 172.533 17.7556 170.423 21.6459 169.009C25.5361 167.597 29.6892 166.91 33.8667 166.989Z" stroke="#181828" stroke-linecap="round" stroke-linejoin="round"/>
<path d="M29.44 191.143L36.4533 191.266C40.8492 191.354 45.0287 193.052 48.0772 195.987C51.1257 198.924 52.7951 202.859 52.72 206.932C52.6853 208.947 52.2213 210.936 51.3545 212.785C50.4877 214.633 49.2352 216.304 47.6691 217.703C46.1029 219.1 44.2541 220.199 42.2287 220.932C40.2032 221.666 38.0411 222.023 35.8667 221.98L28.8533 221.857C24.4575 221.769 20.278 220.071 17.2295 217.136C14.1809 214.2 12.5116 210.264 12.5867 206.191C12.6213 204.176 13.0853 202.187 13.9521 200.338C14.8189 198.49 16.0715 196.818 17.6376 195.421C19.2037 194.023 21.0527 192.924 23.0781 192.19C25.1035 191.457 27.2656 191.101 29.44 191.143Z" fill="#E89176"/>
<path d="M12.8934 185.348C13.9699 182.714 16.0925 180.562 18.8267 179.332C21.08 178.516 20.0933 175.106 17.8267 175.946C14.1168 177.392 11.1676 180.13 9.61335 183.569C9.35708 183.982 9.28482 184.471 9.41175 184.933C9.53882 185.394 9.85508 185.792 10.2933 186.04C10.7287 186.275 11.2464 186.34 11.7335 186.222C12.2206 186.103 12.6376 185.812 12.8934 185.41V185.348Z" fill="white"/>
<path d="M12.0246 193.354C12.2852 191.76 11.3796 190.311 10.0018 190.117C8.62389 189.925 7.29562 191.06 7.03495 192.654C6.77428 194.247 7.67988 195.697 9.05775 195.891C10.4356 196.085 11.7639 194.948 12.0246 193.354Z" fill="white"/>
<path d="M247.813 166.989L261.293 167.236C269.736 167.422 277.759 170.691 283.609 176.333C289.461 181.976 292.669 189.533 292.533 197.357C292.465 201.228 291.573 205.049 289.908 208.6C288.244 212.151 285.837 215.362 282.831 218.049C279.823 220.736 276.271 222.847 272.381 224.26C268.491 225.672 264.337 226.359 260.16 226.28L246.693 226.033C238.248 225.851 230.223 222.582 224.368 216.939C218.513 211.297 215.304 203.738 215.44 195.912C215.508 192.041 216.4 188.22 218.065 184.669C219.729 181.118 222.136 177.907 225.144 175.22C228.151 172.533 231.703 170.423 235.592 169.009C239.483 167.597 243.636 166.91 247.813 166.989Z" fill="#FDC6A2"/>
<path d="M247.813 166.581L261.293 166.829C269.736 167.014 277.759 170.283 283.609 175.925C289.461 181.568 292.669 189.125 292.533 196.949C292.465 200.82 291.573 204.642 289.908 208.192C288.244 211.743 285.837 214.954 282.831 217.641C279.823 220.328 276.271 222.439 272.381 223.852C268.491 225.264 264.337 225.951 260.16 225.872L246.693 225.625C238.26 225.443 230.245 222.183 224.392 216.554C218.539 210.925 215.321 203.381 215.44 195.566C215.499 191.69 216.384 187.863 218.045 184.304C219.707 180.746 222.111 177.528 225.12 174.833C228.129 172.14 231.683 170.025 235.577 168.608C239.472 167.192 243.631 166.502 247.813 166.581Z" stroke="#181828" stroke-linecap="round" stroke-linejoin="round"/>
<path d="M262.453 125.243V222.289C262.453 251.366 249.988 279.253 227.799 299.814C205.609 320.375 175.513 331.925 144.133 331.925C112.753 331.925 82.6577 320.375 60.4684 299.814C38.2792 279.253 25.8133 251.366 25.8133 222.289V125.243C25.7942 110.004 29.2134 94.9289 35.8516 80.9866C42.4898 67.0447 52.2002 54.5422 64.36 44.2819C85.04 55.9201 113.16 63.0611 144.133 63.0611C175.107 63.0611 203.213 55.9571 223.92 44.2943C225.253 45.4062 226.587 46.5428 227.8 47.7165C238.803 57.887 247.528 69.9711 253.475 83.2759C259.421 96.5795 262.473 110.842 262.453 125.243Z" fill="#FDC6A2"/>
<path opacity="0.62" d="M228.44 48.2354C227.173 47 225.893 45.9251 224.573 44.8132C220.628 47.0228 216.545 49.0154 212.347 50.7805C212.893 51.3241 213.4 51.8801 213.933 52.4237C175.96 69.2261 136.44 65.3838 136.04 65.3344C135.196 65.2459 134.349 65.4715 133.685 65.9615C133.023 66.4515 132.596 67.1659 132.5 67.9474C132.404 68.7289 132.648 69.5135 133.177 70.1293C133.705 70.7433 134.476 71.1386 135.32 71.2276C139.356 71.5958 143.411 71.765 147.467 71.7341C162.893 71.7341 190.76 69.6338 218.213 57.0814C235.157 76.5253 244.383 100.77 244.347 125.761V222.808C244.349 250.382 233.137 276.945 212.945 297.201C192.753 317.456 165.065 329.916 135.4 332.098C138.493 332.32 141.627 332.444 144.733 332.444C160.272 332.445 175.659 329.611 190.015 324.102C204.371 318.593 217.415 310.517 228.403 300.336C239.389 290.155 248.105 278.068 254.051 264.766C259.996 251.463 263.055 237.206 263.053 222.808V125.761C263.081 111.363 260.039 97.1021 254.099 83.7973C248.157 70.4925 239.439 58.4068 228.44 48.2354Z" fill="#E89176"/>
<path d="M262.453 99.1987C261.903 99.2012 261.368 99.0258 260.94 98.7033C260.512 98.3821 260.217 97.9324 260.107 97.432C252.773 65.6556 233.907 51.1635 233.707 51.0153C233.244 50.6349 232.957 50.1032 232.907 49.5316C232.856 48.9599 233.047 48.3924 233.437 47.9473C233.828 47.5024 234.388 47.2146 235.003 47.144C235.617 47.0734 236.237 47.2253 236.733 47.5683C237.56 48.186 257.12 63.2094 264.8 96.5054C264.931 97.0836 264.809 97.6865 264.461 98.182C264.115 98.6774 263.569 99.0245 262.947 99.1493C262.784 99.1777 262.619 99.195 262.453 99.1987Z" fill="#A06247"/>
<path opacity="0.39" d="M222.133 306.351C200.111 323.976 171.868 333.488 142.772 333.08C113.676 332.672 85.7568 322.372 64.32 304.139L79.3333 263.369C82.1066 254.621 90 246.937 99.76 245.281H189.573C199.347 246.924 207.24 254.572 210.027 263.369L222.133 306.351Z" fill="#C08976"/>
<path d="M11.8267 198.79C15.5344 194.593 20.6909 191.709 26.4267 190.624" stroke="#1B1B2B" stroke-linecap="round" stroke-linejoin="round"/>
<path d="M278.4 198.79C274.695 194.596 269.544 191.712 263.813 190.624" stroke="#1B1B2B" stroke-linecap="round" stroke-linejoin="round"/>
<path d="M142.627 203.152V220.115C143.08 226.827 144.627 233.438 147.213 239.722" stroke="#181828" stroke-linecap="round" stroke-linejoin="round"/>
<path d="M173.12 153.807C172.471 153.839 171.829 153.661 171.307 153.303C170.784 152.944 170.412 152.429 170.255 151.845C170.097 151.26 170.164 150.644 170.443 150.1C170.723 149.557 171.197 149.119 171.787 148.865C178.327 145.808 185.541 144.193 192.867 144.149C200.192 144.103 207.429 145.629 214.013 148.605C214.679 148.913 215.184 149.453 215.419 150.106C215.653 150.76 215.599 151.473 215.267 152.089C214.935 152.706 214.352 153.174 213.647 153.392C212.941 153.609 212.172 153.558 211.507 153.251C205.717 150.641 199.357 149.303 192.92 149.339C186.483 149.376 180.141 150.786 174.387 153.461C174.003 153.672 173.567 153.792 173.12 153.807Z" fill="#2E2D4C"/>
<path d="M233.093 168.188C234.605 168.273 236.111 167.947 237.425 167.25C238.739 166.553 239.805 165.515 240.492 164.265C241.179 163.015 241.457 161.605 241.291 160.21C241.125 158.815 240.524 157.496 239.56 156.414C238.48 155.178 212.613 127.392 160.96 140.229C159.095 140.818 157.54 142.041 156.611 143.652C155.681 145.262 155.448 147.14 155.956 148.904C156.464 150.669 157.677 152.188 159.348 153.156C161.02 154.123 163.025 154.466 164.96 154.116C206.6 143.713 226.827 164.741 227.627 165.643C228.309 166.383 229.144 166.989 230.083 167.427C231.021 167.864 232.045 168.122 233.093 168.188Z" fill="#D08C6F"/>
<path d="M157.28 147.938C157.545 148.851 158.004 149.707 158.627 150.457C159.249 151.207 160.025 151.836 160.911 152.307C161.796 152.779 162.773 153.084 163.787 153.206C164.799 153.327 165.828 153.263 166.813 153.016C208.44 142.613 228.653 163.641 229.48 164.531C230.62 165.764 232.177 166.604 233.897 166.914C235.619 167.225 237.401 166.987 238.957 166.241C240.515 165.493 241.752 164.281 242.472 162.8C243.191 161.318 243.349 159.657 242.92 158.081C242.436 158.875 241.799 159.578 241.04 160.157C239.504 161.367 237.519 161.974 235.507 161.85C234.475 161.788 233.467 161.538 232.54 161.113C231.613 160.69 230.787 160.1 230.107 159.379C229.267 158.477 209.12 137.461 167.44 147.864C165.448 148.358 163.324 148.101 161.537 147.146C159.749 146.192 158.444 144.62 157.907 142.774C157.005 144.362 156.781 146.205 157.28 147.938Z" fill="#723F28"/>
<path d="M233.093 168.188C234.605 168.273 236.111 167.947 237.425 167.25C238.739 166.553 239.805 165.515 240.492 164.265C241.179 163.015 241.457 161.605 241.291 160.21C241.125 158.815 240.524 157.496 239.56 156.414C238.48 155.178 212.613 127.392 160.96 140.229C159.095 140.818 157.54 142.041 156.611 143.652C155.681 145.262 155.448 147.14 155.956 148.904C156.464 150.669 157.677 152.188 159.348 153.156C161.02 154.123 163.025 154.466 164.96 154.116C206.6 143.713 226.827 164.741 227.627 165.643C228.309 166.383 229.144 166.989 230.083 167.427C231.021 167.864 232.045 168.122 233.093 168.188Z" stroke="#1B1B2B" stroke-linecap="round" stroke-linejoin="round"/>
<path d="M72.32 153.807C71.6709 153.839 71.0299 153.661 70.5071 153.303C69.9841 152.944 69.612 152.429 69.4544 151.845C69.2967 151.26 69.3633 150.644 69.6429 150.1C69.9225 149.557 70.3976 149.119 70.9867 148.865C77.5271 145.808 84.7419 144.193 92.0672 144.149C99.3924 144.103 106.629 145.629 113.213 148.605C113.879 148.913 114.384 149.453 114.619 150.106C114.853 150.76 114.799 151.473 114.467 152.089C114.135 152.706 113.552 153.174 112.847 153.392C112.141 153.609 111.372 153.558 110.707 153.251C104.918 150.641 98.5576 149.303 92.1203 149.339C85.6828 149.376 79.3409 150.786 73.5867 153.461C73.2024 153.672 72.7668 153.792 72.32 153.807Z" fill="#2E2D4C"/>
<path d="M47.6667 168.459C46.1512 168.498 44.6571 168.122 43.3693 167.381C42.0817 166.64 41.0572 165.564 40.4227 164.289C39.7881 163.012 39.5716 161.591 39.7999 160.203C40.0281 158.814 40.6911 157.518 41.7067 156.475C42.84 155.314 69.7733 128.467 120.92 143.145C122.773 143.796 124.288 145.077 125.155 146.729C126.021 148.379 126.175 150.275 125.584 152.028C124.993 153.78 123.703 155.257 121.976 156.157C120.249 157.057 118.216 157.313 116.293 156.871C75.1333 144.973 54.0533 165.247 53.1733 166.124C52.4693 166.834 51.6196 167.406 50.6741 167.806C49.7285 168.207 48.706 168.43 47.6667 168.459Z" fill="#D08C6F"/>
<path d="M124.227 150.99C123.611 152.811 122.239 154.331 120.413 155.215C118.589 156.101 116.46 156.278 114.493 155.709C73.3333 143.812 52.2533 164.086 51.3733 164.951C50.1803 166.136 48.5908 166.914 46.8616 167.158C45.1324 167.403 43.3648 167.1 41.8444 166.299C40.3241 165.497 39.14 164.244 38.4835 162.742C37.8269 161.239 37.7365 159.575 38.2267 158.02C38.6668 158.833 39.2736 159.559 40.0133 160.157C41.4947 161.431 43.4599 162.11 45.48 162.047C46.5137 162.024 47.532 161.81 48.4752 161.417C49.4185 161.024 50.2677 160.462 50.9733 159.762C51.8533 158.897 72.8667 138.623 114.093 150.52C115.068 150.802 116.095 150.902 117.111 150.816C118.128 150.729 119.117 150.457 120.021 150.018C120.925 149.576 121.727 148.975 122.379 148.247C123.032 147.519 123.524 146.68 123.827 145.776C124.663 147.406 124.805 149.268 124.227 150.99Z" fill="#723F28"/>
<path d="M46.0667 168.558C44.5525 168.593 43.0607 168.216 41.7748 167.475C40.4889 166.734 39.4653 165.659 38.8303 164.385C38.1952 163.111 37.9764 161.693 38.2008 160.304C38.4253 158.917 39.0832 157.619 40.0933 156.574C41.2267 155.413 68.1733 128.554 119.307 143.243C121.152 143.898 122.659 145.179 123.521 146.826C124.384 148.474 124.536 150.363 123.949 152.112C123.361 153.86 122.077 155.335 120.359 156.237C118.639 157.14 116.613 157.402 114.693 156.97C73.5333 145.072 52.44 165.346 51.56 166.223C50.8585 166.932 50.0112 167.503 49.0677 167.905C48.1244 168.306 47.104 168.527 46.0667 168.558Z" stroke="#181828" stroke-linecap="round" stroke-linejoin="round"/>
<path d="M27.6667 242.057C26.383 235.535 25.7404 228.919 25.7467 222.289V125.243C25.7276 110.004 29.1468 94.9289 35.785 80.9866C42.4232 67.0447 52.1336 54.5422 64.2934 44.2819C84.9734 55.9201 113.093 63.0611 144.067 63.0611C175.04 63.0611 203.133 55.9571 223.827 44.2943C225.16 45.4062 226.493 46.5428 227.707 47.7165C238.712 57.886 247.439 69.9699 253.388 83.2747C259.337 96.5783 262.391 110.842 262.373 125.243V222.289C262.372 246.318 253.853 269.679 238.127 288.785C222.4 307.889 200.336 321.678 175.327 328.031C150.319 334.385 123.751 332.949 99.7074 323.948C75.6646 314.946 55.4786 298.875 42.2534 278.207" stroke="#181828" stroke-linecap="round" stroke-linejoin="round"/>
<path d="M47.6495 257.927C50.4588 257 51.42 252.825 49.7963 248.602C48.1726 244.379 44.5788 241.707 41.7695 242.635C38.9602 243.563 37.999 247.737 39.6227 251.96C41.2464 256.183 44.8402 258.855 47.6495 257.927Z" fill="white"/>
<path d="M33.1467 259.131C33.7748 261.572 34.6683 263.948 35.8134 266.222" stroke="#181828" stroke-linecap="round" stroke-linejoin="round"/>
<path d="M121.24 192.465C121.501 188.591 120.904 184.708 119.485 181.058C118.065 177.405 115.853 174.062 112.985 171.233C110.117 168.404 106.655 166.149 102.811 164.608C98.9664 163.068 94.822 162.272 90.6333 162.272C86.4447 162.272 82.3004 163.068 78.456 164.608C74.6117 166.149 71.1489 168.404 68.2811 171.233C65.4133 174.062 63.2015 177.405 61.7817 181.058C60.3621 184.708 59.7648 188.591 60.0267 192.465L60.5067 203.337H120.76" fill="white"/>
<path d="M60.7333 201.681H120.973" stroke="#181828" stroke-linecap="round" stroke-linejoin="round"/>
<path d="M161.147 192.465C160.885 188.591 161.483 184.708 162.901 181.058C164.321 177.405 166.533 174.062 169.401 171.233C172.269 168.404 175.732 166.149 179.576 164.608C183.42 163.068 187.564 162.272 191.753 162.272C195.943 162.272 200.087 163.068 203.931 164.608C207.775 166.149 211.237 168.404 214.105 171.233C216.973 174.062 219.185 177.405 220.605 181.058C222.024 184.708 222.621 188.591 222.36 192.465L221.867 203.337H161.627" fill="white"/>
<path d="M221.653 201.681H161.4" stroke="#181828" stroke-linecap="round" stroke-linejoin="round"/>
<path d="M192.507 198.704C202.323 198.704 210.28 191.331 210.28 182.235C210.28 173.139 202.323 165.766 192.507 165.766C182.691 165.766 174.733 173.139 174.733 182.235C174.733 191.331 182.691 198.704 192.507 198.704Z" fill="#181828"/>
<path d="M60.0598 192.193C59.7985 188.319 60.3958 184.436 61.8144 180.785C63.2344 177.133 65.4464 173.79 68.3144 170.961C71.1824 168.132 74.6451 165.877 78.4891 164.336C82.3331 162.796 86.4771 162 90.6665 162C94.8558 162 98.9998 162.796 102.844 164.336C106.688 165.877 110.15 168.132 113.018 170.961C115.886 173.79 118.098 177.133 119.518 180.785C120.937 184.436 121.534 188.319 121.273 192.193L120.78 203.065H60.5398" fill="white"/>
<path d="M120.566 201.409H60.3131" stroke="#181828" stroke-linecap="round" stroke-linejoin="round"/>
<path d="M91.4198 198.432C101.236 198.432 109.193 191.058 109.193 181.963C109.193 172.867 101.236 165.494 91.4198 165.494C81.6038 165.494 73.6465 172.867 73.6465 181.963C73.6465 191.058 81.6038 198.432 91.4198 198.432Z" fill="#181828"/>
<path d="M104.2 258.019H180.32V274.216C180.32 283.567 176.311 292.537 169.175 299.149C162.039 305.761 152.359 309.476 142.267 309.476C132.175 309.476 122.495 305.761 115.359 299.149C108.223 292.537 104.213 283.567 104.213 274.216V258.019H104.2Z" fill="#AF143B"/>
<path opacity="0.4" d="M142.253 294.663C155.067 294.663 165.453 288.69 165.453 281.32C165.453 273.95 155.067 267.977 142.253 267.977C129.44 267.977 119.053 273.95 119.053 281.32C119.053 288.69 129.44 294.663 142.253 294.663Z" fill="#670118"/>
<path d="M174.813 275.106H110.493C109.884 275.106 109.28 274.994 108.717 274.778C108.155 274.562 107.643 274.246 107.212 273.847C106.781 273.447 106.44 272.973 106.207 272.452C105.973 271.93 105.853 271.371 105.853 270.806V256.413H179.453V270.794C179.455 271.36 179.336 271.919 179.104 272.443C178.872 272.966 178.531 273.441 178.099 273.842C177.668 274.242 177.156 274.561 176.592 274.777C176.028 274.994 175.424 275.106 174.813 275.106Z" fill="white"/>
<path d="M174.467 275.106H110.853C109.531 275.106 108.263 274.619 107.327 273.753C106.392 272.885 105.867 271.71 105.867 270.485V268.31H179.467V270.485C179.467 271.093 179.337 271.694 179.085 272.257C178.835 272.817 178.465 273.328 178.001 273.756C177.537 274.186 176.985 274.526 176.379 274.757C175.772 274.989 175.123 275.107 174.467 275.106Z" fill="#D2F2FF"/>
<path d="M179.453 275.106H105.853" stroke="#1B1B2B" stroke-linecap="round" stroke-linejoin="round"/>
<path d="M113 256.104H172.2C174.441 256.104 176.592 256.929 178.177 258.398C179.763 259.867 180.653 261.859 180.653 263.937V272.301C180.653 281.652 176.644 290.622 169.508 297.234C162.372 303.846 152.692 307.561 142.6 307.561C132.508 307.561 122.828 303.846 115.692 297.234C108.556 290.622 104.547 281.652 104.547 272.301V263.937C104.547 262.908 104.765 261.89 105.19 260.94C105.615 259.99 106.238 259.126 107.023 258.398C107.808 257.671 108.74 257.094 109.765 256.701C110.791 256.307 111.889 256.104 113 256.104Z" stroke="#1B1B2B" stroke-linecap="round" stroke-linejoin="round"/>
<path d="M222.133 190.809C222.395 186.936 221.797 183.053 220.379 179.402C218.959 175.75 216.747 172.407 213.879 169.578C211.011 166.748 207.548 164.494 203.704 162.953C199.86 161.411 195.716 160.617 191.527 160.617C187.337 160.617 183.193 161.411 179.349 162.953C175.505 164.494 172.043 166.748 169.175 169.578C166.307 172.407 164.095 175.75 162.675 179.402C161.256 183.053 160.659 186.936 160.92 190.809" stroke="#181828" stroke-linecap="round" stroke-linejoin="round"/>
<path d="M60.2533 190.809C59.9767 186.929 60.5628 183.036 61.9755 179.374C63.388 175.71 65.5971 172.356 68.4656 169.517C71.3341 166.678 74.8013 164.413 78.6523 162.866C82.5031 161.318 86.6559 160.52 90.8533 160.52C95.0508 160.52 99.2036 161.318 103.054 162.866C106.905 164.413 110.372 166.678 113.241 169.517C116.109 172.356 118.319 175.71 119.731 179.374C121.144 183.036 121.729 186.929 121.453 190.809" stroke="#181828" stroke-linecap="round" stroke-linejoin="round"/>
<path d="M268.823 225.876C269.188 228.192 268.247 238.093 268.744 239.357C269.241 240.621 269.78 241.273 270.325 241.275C270.872 241.276 271.413 240.626 271.919 239.364C272.423 238.104 272.88 236.259 273.26 233.943C273.64 231.628 273.936 228.891 274.129 225.904C274.321 222.917 274.408 219.741 274.381 216.576" stroke="#6366F1" stroke-linecap="round" stroke-linejoin="round"/>
<path d="M18.8561 224.722C18.6787 227.326 18.4063 229.712 18.0557 231.731C17.7052 233.749 17.284 235.358 16.8183 236.457C16.3527 237.557 15.8524 238.124 15.3484 238.123C14.8445 238.122 14.3476 237.552 13.8887 236.45C13.4297 235.348 13.0183 233.737 12.6801 231.717C12.3419 229.696 12.0839 227.309 11.9223 224.703C11.7605 222.098 11.6987 219.329 13.0736 212.862" stroke="#6366F1" stroke-linecap="round" stroke-linejoin="round"/>
</svg>
