<svg width="222" height="50" viewBox="0 0 222 50" fill="none" xmlns="http://www.w3.org/2000/svg">
  <rect width="50" height="25" fill="white" />
  <rect x="12" y="25" width="25" height="25" fill="white" />
  <circle cx="86" cy="25" r="25" fill="white" />
  <path
    d="M222 50C222 43.4339 220.707 36.9321 218.194 30.8658C215.681 24.7995 211.998 19.2876 207.355 14.6447C202.712 10.0017 197.2 6.31876 191.134 3.80602C185.068 1.29329 178.566 -2.87013e-07 172 0C165.434 2.87013e-07 158.932 1.29329 152.866 3.80602C146.8 6.31876 141.288 10.0017 136.645 14.6447C132.002 19.2876 128.319 24.7996 125.806 30.8658C123.293 36.9321 122 43.4339 122 50L172 50H222Z"
    fill="white" />
</svg>